<svg height="512" viewBox="0 0 54 56" width="512" xmlns="http://www.w3.org/2000/svg"><g id="Page-1" fill="none" fill-rule="evenodd"><g id="035---Sea-Mine" fill="rgb(0,0,0)" fill-rule="nonzero"><path id="Shape" d="m5.03 27c-.02.33-.03.66-.03 1s.01.67.03 1h-4.03c-.55228475 0-1-.4477153-1-1s.44771525-1 1-1z"/><path id="Shape" d="m54 28c0 .5522847-.4477153 1-1 1h-4.03c.02-.33.03-.66.03-1s-.01-.67-.03-1h4.03c.5522847 0 1 .4477153 1 1z"/><path id="Shape" d="m42.71 36.19c-.1518353-.0889322-.3240602-.1371552-.5-.14-.0883519-.002173-.1763869.0113708-.26.04-.2574946.0638595-.4777988.2299905-.61.46-.274015.4783837-.1137923 1.0881204.36 1.37l8.208 4.78c.1145654.0668691.2510078.0854715.3792927.0517123.128285-.0337592.2378968-.1171127.3047073-.2317123l.506-.867c.0667853-.1146867.0852352-.2512199.0512847-.379519-.0339505-.1282992-.1175157-.2378372-.2322847-.304481z"/><path id="Shape" d="m37.88 34.54c-.4895178.8373939-.5403773 1.8607672-.1363002 2.742571s1.2124185 1.5114574 2.1663002 1.687429c-.810692-.9653892-.928287-2.3357192-.2939265-3.4251156.6343605-1.0893965 1.8841899-1.6634691 3.1239265-1.4348844-.6247854-.7446105-1.5738311-1.1371802-2.5420578-1.051514-.9682267.0856661-1.8336016.638771-2.3179422 1.481514z"/><path id="Shape" d="m47.28 19.46-1.84 1.08c-.2513653 2.1368771-1.8415872 3.8733285-3.9481667 4.3112221s-4.2570765-.5209765-5.339205-2.3806609-.8532008-4.2031138.5683765-5.8182132 3.7169887-2.1396523 5.6989952-1.302348l1.79-1.04c-3.5136831-4.43284897-8.6054238-7.33524869-14.21-8.1v1.8c1.7217216 1.29129122 2.4239867 3.5394281 1.7434165 5.5811388s-2.5912645 3.4188612-4.7434165 3.4188612-4.0628463-1.3771505-4.7434165-3.4188612.0216949-4.28984758 1.7434165-5.5811388v-1.8c-5.6045762.76475131-10.6963169 3.66715103-14.21 8.1l1.79 1.04c1.8683015-.7958503 4.0323816-.382642 5.4760184 1.0455879 1.4436369 1.4282299 1.8800403 3.587752 1.1042814 5.4644849-.775759 1.8767328-2.6095695 3.0978481-4.6402998 3.0899272-2.5312715-.0025658-4.66131111-1.8964115-4.96-4.41l-1.84-1.07c-1.01288562 2.3875254-1.58544067 4.9386139-1.69 7.53h43.94c-.1057417-2.594458-.6782259-5.1486183-1.69-7.54z"/><path id="Shape" d="m6.73 36.53 1.83-1.07c.18965522-1.5601855 1.09545229-2.9429125 2.45-3.74 1.8179833-1.0594203 4.1046944-.8673026 5.7204267.4806008 1.6157323 1.3479035 2.2146973 3.5631231 1.4983682 5.5415839s-2.5946482 3.2967455-4.6987949 3.2978153c-.6694796.0010918-1.3324388-.1315-1.95-.39l-1.79 1.04c3.5136831 4.432849 8.6054238 7.3352487 14.21 8.1v-1.8c-1.7217216-1.2912912-2.4239867-3.5394281-1.7434165-5.5811388s2.5912645-3.4188612 4.7434165-3.4188612 4.0628463 1.3771505 4.7434165 3.4188612-.0216949 4.2898476-1.7434165 5.5811388v1.8c5.6045762-.7647513 10.6963169-3.667151 14.21-8.1l-1.79-1.04c-1.9817364.8404344-4.2789986.3164783-5.7003376-1.3001245-1.421339-1.6166029-1.6468855-3.9620393-.5596624-5.8198755 1.3875928-2.3840894 4.4438319-3.1940151 6.83-1.81 1.3545477.7970875 2.2603448 2.1798145 2.45 3.74l1.84 1.08c1.0107327-2.3917156 1.583174-4.9456846 1.69-7.54h-43.94c.10430853 2.5924596.68039441 5.1441812 1.7 7.53z"/><path id="Shape" d="m39.47 48.5c-.57.34-1.15.67-1.75.97l1.7 3.045c.1320554.2423796.435537.3319022.678.2l.883-.487c.1174715-.0634169.204705-.1711766.2422715-.2992782.0375664-.1281016.0223459-.2659064-.0422715-.3827218z"/><path id="Shape" d="m27 45c-.5522847 0-1 .4477153-1 1v9.5c0 .2761424.2238576.5.5.5h1c.2761424 0 .5-.2238576.5-.5v-9.5c0-.5522847-.4477153-1-1-1z"/><path id="Shape" d="m27 41c-.9707401-.0050968-1.882746.4643747-2.4426414 1.2573939-.5598955.7930191-.6970557 1.8095551-.3673586 2.7226061.4260881-1.1854554 1.5502954-1.976002 2.81-1.976002s2.3839119.7905466 2.81 1.976002c.3296971-.913051.1925369-1.929587-.3673586-2.7226061-.5598954-.7930192-1.4719013-1.2624907-2.4426414-1.2573939z"/><path id="Shape" d="m14.47 48.46-1.746 3.133c-.1343772.2410844-.04799.5454536.193.68l.884.493c.116722.0642978.2542819.0793411.3821418.0417905.12786-.0375507.2354402-.1245882.2988582-.2417905l1.728-3.126c-.6-.3-1.18-.63-1.74-.98z"/><path id="Shape" d="m16.12 34.54c-.4843406-.842743-1.3497155-1.3958479-2.3179422-1.481514-.9682267-.0856662-1.9172724.3069035-2.5420578 1.051514 1.2397366-.2285847 2.489566.3454879 3.1239265 1.4348844.6343605 1.0893964.5167655 2.4597264-.2939265 3.4251156.9538817-.1759716 1.7622231-.8056252 2.1663002-1.687429s.3532176-1.9051771-.1363002-2.742571z"/><path id="Shape" d="m12.66 36.55c-.1322012-.2300095-.3525054-.3961405-.61-.46-.0836131-.0286292-.1716481-.042173-.26-.04-.1759398.0028448-.3481647.0510678-.5.14l-8.207 4.778c-.11476898.0666438-.19833415.1761818-.23228466.304481-.03395051.1282991-.01550068.2648323.05128466.379519l.506.867c.06681047.1145996.17642233.1979531.30470728.2317123s.26472732.0151568.37929272-.0517123l8.208-4.779c.4737923-.2818796.634015-.8916163.36-1.37z"/><path id="Shape" d="m14.09 17.03c.8128678.9643438.9295847 2.3363527.2912923 3.4241467-.6382923 1.0877941-1.8929585 1.6551072-3.1312923 1.4158533.8417203 1.0100928 2.2456749 1.3496922 3.4559894.8359613 1.2103146-.5137308 1.9413261-1.7595391 1.7994657-3.0666949s-1.1231103-2.3671392-2.4154551-2.6092664z"/><path id="Shape" d="m12.76 18.69c-.0675474-.2557205-.2327103-.4747409-.46-.61l-8.208-4.78c-.1145654-.0668691-.25100777-.0854715-.37929272-.0517123s-.23789681.1171127-.30470728.2317123l-.506.867c-.06678534.1146867-.08523517.2512199-.05128466.379519.03395051.1282992.11751568.2378372.23228466.304481l8.207 4.779c.3496232.2036332.7875023.176522 1.1093357-.0686844.3218333-.2452064.4641955-.6601837.3606643-1.0513156z"/><path id="Shape" d="m13.8 3.3-.876.485c-.1161721.06444568-.2019208.17247485-.2383184.30024188-.0363977.12776704-.0204516.26476652.0443184.38075812l1.72 3.084c.57-.35 1.15-.68 1.75-.98l-1.717-3.07c-.0634152-.11774128-.1713545-.20517152-.299698-.24275382-.1283436-.0375823-.2663936-.02218408-.383302.04275382z"/><path id="Shape" d="m26.5 0c-.2761424 0-.5.22385763-.5.5v9.5c0 .5522847.4477153 1 1 1s1-.4477153 1-1v-9.5c0-.27614237-.2238576-.5-.5-.5z"/><path id="Shape" d="m29.81 11.02c-.4260881 1.1854554-1.5502954 1.976002-2.81 1.976002s-2.3839119-.7905466-2.81-1.976002c-.4390726 1.2361301-.0187731 2.6140215 1.0354714 3.3946436s2.4948127.7806221 3.5490572 0 1.474544-2.1585135 1.0354714-3.3946436z"/><path id="Shape" d="m39.427 3.439-1.707 3.081c.6.3 1.18.63 1.75.98l1.709-3.085c.133022-.24062442.0468039-.5435045-.193-.678l-.878-.492c-.1159916-.06477001-.2529911-.0807161-.3807581-.04431845-.1277671.03639766-.2357962.12214634-.3002419.23831845z"/><path id="Shape" d="m39.91 17.03c-1.369241.2621534-2.3748614 1.4368922-2.4227407 2.8301807-.0478794 1.3932885.8747259 2.6342894 2.2227407 2.9898193 1.1181404.3110827 2.314065-.0744456 3.04-.98-1.23871.2405503-2.4944171-.3265136-3.1330212-1.4148388-.638604-1.0883253-.5211619-2.4611213.2930212-3.4251612z"/><path id="Shape" d="m50.592 13.481c-.0668105-.1145996-.1764223-.1979531-.3047073-.2317123-.1282849-.0337592-.2647273-.0151568-.3792927.0517123l-8.208 4.779c-.4777263.2789038-.6389038.8922737-.36 1.37s.8922737.6389038 1.37.36l8.207-4.778c.114769-.0666438.1983342-.1761818.2322847-.304481.0339505-.1282991.0155006-.2648323-.0512847-.379519z"/></g></g></svg>